HIERARCHY
ROOT Hips
{
	OFFSET 0.00000 0.00000 0.00000
	CHANNELS 6 Xposition Yposition Zposition Zrotation Yrotation Xrotation 
	JOINT LHipJoint
	{
		OFFSET 0 0 0
		CHANNELS 3 Zrotation Yrotation Xrotation
		JOINT LeftHip
		{
			OFFSET 3.13874 -1.57224 1.49786
			CHANNELS 3 Zrotation Yrotation Xrotation
			JOINT LeftKnee
			{
				OFFSET 2.10955 -5.79594 0.00000
				CHANNELS 3 Zrotation Yrotation Xrotation
				JOINT LeftAnkle
				{
					OFFSET 2.41843 -6.64458 0.00000
					CHANNELS 3 Zrotation Yrotation Xrotation
					JOINT LeftToe
					{
						OFFSET 0.04713 -0.12948 1.66229
						CHANNELS 3 Zrotation Yrotation Xrotation
						End Site
						{
							OFFSET 0.00000 -0.00000 0.85167
						}
					}
				}
			}
		}
	}
	JOINT RHipJoint
	{
		OFFSET 0 0 0
		CHANNELS 3 Zrotation Yrotation Xrotation
		JOINT RightHip
		{
			OFFSET -3.13988 -1.57224 1.49786
			CHANNELS 3 Zrotation Yrotation Xrotation
			JOINT RightKnee
			{
				OFFSET -2.15006 -5.90725 0.00000
				CHANNELS 3 Zrotation Yrotation Xrotation
				JOINT RightAnkle
				{
					OFFSET -2.34496 -6.44273 0.00000
					CHANNELS 3 Zrotation Yrotation Xrotation
					JOINT RightToe
					{
						OFFSET -0.08699 -0.23900 1.55223
						CHANNELS 3 Zrotation Yrotation Xrotation
						End Site
						{
							OFFSET -0.00000 -0.00000 0.80281
						}
					}
				}
			}
		}
	}
	JOINT lowerback
	{
		OFFSET 0 0 0
		CHANNELS 3 Zrotation Yrotation Xrotation
		JOINT Chest
		{
			OFFSET 0.01292 1.96517 -0.16495
			CHANNELS 3 Zrotation Yrotation Xrotation
			JOINT Chest2
			{
				OFFSET 0.02122 1.88666 0.19706
				CHANNELS 3 Zrotation Yrotation Xrotation
				JOINT lowerneck
				{
					OFFSET 0 0 0
					CHANNELS 3 Zrotation Yrotation Xrotation
					JOINT Neck
					{
						OFFSET -0.01683 1.81591 0.07903
						CHANNELS 3 Zrotation Yrotation Xrotation
						JOINT Head
						{
							OFFSET 0.00815 1.74013 -0.47700
							CHANNELS 3 Zrotation Yrotation Xrotation
							End Site
							{
								OFFSET -0.00204 1.83225 -0.16933
							}
						}
					}
				}
				JOINT LeftCollar
				{
					OFFSET 0 0 0
					CHANNELS 3 Zrotation Yrotation Xrotation
					JOINT LeftShoulder
					{
						OFFSET 3.38482 1.41533 0.19802
CHANNELS 3 Zrotation Xrotation Yrotation
						JOINT LeftElbow
						{
OFFSET 0 -4.327120 0.000000
CHANNELS 3 Zrotation Xrotation Yrotation
							JOINT LeftWrist
							{
OFFSET 0 -3.285870 -0.000000
CHANNELS 3 Zrotation Xrotation Yrotation
								JOINT lhand
								{
									OFFSET 0 0 0
CHANNELS 3 Zrotation Xrotation Yrotation
									JOINT LFingers
									{
OFFSET 0 -0.433160 -0.000000
CHANNELS 3 Zrotation Xrotation Yrotation
										End Site
										{
OFFSET 0 -0.349220 -0.000000
										}
									}
								}
								JOINT LThumb
								{
OFFSET 0 0.000000 0.000000
CHANNELS 3 Zrotation Xrotation Yrotation
									End Site
									{
OFFSET 0 -0.354560 0.354560
									}
								}
							}
						}
					}
				}
				JOINT RightCollar
				{
					OFFSET 0 0 0
					CHANNELS 3 Zrotation Yrotation Xrotation
					JOINT RightShoulder
					{
						OFFSET -3.09725 1.62858 -0.14144
CHANNELS 3 Zrotation Xrotation Yrotation
						JOINT RightElbow
						{
OFFSET 0 -4.291040 0.000000
CHANNELS 3 Zrotation Xrotation Yrotation
							JOINT RightWrist
							{
OFFSET 0 -3.227200 -0.000000
CHANNELS 3 Zrotation Xrotation Yrotation
								JOINT rhand
								{
									OFFSET 0 0 0
CHANNELS 3 Zrotation Xrotation Yrotation
									JOINT RFingers
									{
OFFSET 0 -0.543620 -0.000000
CHANNELS 3 Zrotation Xrotation Yrotation
										End Site
										{
OFFSET 0 -0.438280 -0.000000
										}
									}
								}
								JOINT RThumb
								{
OFFSET 0 0.000000 0.000000
CHANNELS 3 Zrotation Xrotation Yrotation
									End Site
									{
OFFSET 0 -0.444970 0.444970
									}
								}
							}
						}
					}
				}
			}
		}
	}
}
MOTION
Frames: 8
Frame Time: 0.008333333333333333
-37.487600 16.288400 -1.969800 -177.859000 -2.457800 -168.541000 0.000000 0.000000 0.000000 -34.182000 -39.982600 17.443200 0.043300 -1.343100 -3.693400 5.630200 -9.085500 -43.696800 2.260700 -9.389200 -27.020400 0.000000 0.000000 0.000000 34.480500 16.559700 -2.353700 -0.072600 -1.738200 4.782800 -1.542900 -4.564600 -25.489200 -0.000100 0.072400 -0.198800 1.842200 1.556900 6.266400 1.324700 1.783100 -9.735500 0.185800 0.428600 -14.182700 0.864400 -1.411900 -20.846600 0.134800 -5.638400 36.803000 -1.540800 -3.191000 16.846100 -0.000000 0.000000 0.000000 9.223000 15.610100 -22.593900 15.833500 -25.294400 3.574500 17.715500 9.576300 -21.322700 0.000000 0.000000 0.000000 -7.125000 0.000000 0.000000 -11.195200 51.920300 1.927600 -0.000000 0.000000 0.000000 -26.628900 14.097300 53.887900 -19.342300 -29.841800 -5.200100 26.166100 18.652000 2.335400 0.000000 0.000000 0.000000 7.125000 0.000000 -0.000000 38.692200 29.642500 18.719500
-37.485584 16.290290 -1.981528 -177.631503 -2.569436 -168.626341 0.000000 0.000000 0.000000 -33.854215 -39.678064 17.302282 0.038691 -1.269847 -3.491623 5.535859 -7.995057 -43.409647 1.970482 -8.804071 -25.184422 0.000000 0.000000 0.000000 35.680266 18.694349 2.450320 -0.018034 0.597275 -1.641843 -0.803809 -12.418379 -25.640513 -0.276972 3.349833 -9.257549 3.278881 1.605617 5.975680 0.920289 1.928843 -10.035434 -1.076615 0.287179 -14.293543 -0.041256 -1.458659 -19.209473 1.034357 -5.797476 36.432081 -0.975954 -3.332388 16.328132 0.000000 0.000000 0.000000 10.045219 16.633747 -24.908034 16.018115 -25.545269 3.653809 18.670679 8.151371 -21.953182 0.000000 0.000000 0.000000 -7.125000 0.000000 0.000000 -10.491087 52.725998 2.011114 0.000000 0.000000 0.000000 -25.951524 16.270253 66.258924 -20.283478 -30.982055 -5.676692 -15.236777 -9.779696 14.488671 0.000000 0.000000 0.000000 7.125000 0.000000 0.000000 11.299321 44.679444 0.156449
-37.484646 16.292459 -1.994347 -177.462307 -2.698163 -168.780279 0.000000 0.000000 0.000000 -33.758871 -39.666491 17.489558 0.037500 -1.250460 -3.438279 5.461303 -7.998333 -43.096504 1.925099 -8.703661 -24.875770 0.000000 0.000000 0.000000 36.797103 18.726477 6.418289 -0.157859 2.559829 -7.055575 -0.801936 -13.393519 -26.541839 -0.010236 0.651967 -1.791512 4.167947 1.540990 5.628543 0.983351 1.875298 -10.341894 -1.476574 0.131733 -14.423175 -1.394091 -1.275399 -17.351093 1.762370 -5.442714 36.113919 -0.320707 -3.364384 15.787786 0.000000 0.000000 0.000000 9.689972 17.716572 -25.189157 16.041444 -25.576824 3.663839 19.109476 8.125069 -21.782956 0.000000 0.000000 0.000000 -7.125000 0.000000 0.000000 -9.988506 52.631337 1.891021 0.000000 0.000000 0.000000 -24.527438 17.205386 66.541770 -19.688068 -30.263172 -5.374053 -23.883367 -11.263543 14.320643 0.000000 0.000000 0.000000 7.125000 0.000000 0.000000 3.382498 45.552348 -0.044219
-37.489178 16.296948 -2.004854 -177.438484 -2.817236 -168.857758 0.000000 0.000000 0.000000 -33.888349 -39.950252 17.770241 0.038748 -1.270351 -3.492931 5.180029 -12.591042 -41.611102 1.229385 -7.024926 -19.791975 0.000000 0.000000 0.000000 36.828846 19.116578 6.742355 -0.157743 2.559141 -7.053717 -0.981380 -12.877037 -27.394389 -0.013010 -0.365090 1.004079 4.287628 1.395411 5.255126 1.224629 1.668965 -10.368404 -1.231236 0.030115 -14.236335 -2.168984 -1.102578 -16.652122 2.137448 -5.072779 35.864463 0.059083 -3.290311 15.523517 0.000000 0.000000 0.000000 9.292667 17.876280 -25.065494 15.969581 -25.479238 3.632953 19.171150 7.482931 -21.588604 0.000000 0.000000 0.000000 -7.125000 0.000000 0.000000 -9.853906 52.444353 1.820002 0.000000 0.000000 0.000000 -23.211674 17.507512 63.962591 -18.960858 -29.369751 -5.011736 -24.455547 -7.168938 15.693317 0.000000 0.000000 0.000000 7.125000 0.000000 0.000000 3.087661 47.109218 -0.160475
-37.486368 16.296735 -2.016195 -177.219247 -2.883394 -168.959339 0.000000 0.000000 0.000000 -33.594448 -39.748193 17.785457 0.042237 -1.326490 -3.647649 5.025261 -13.850948 -40.933360 1.028386 -6.450626 -18.097560 0.000000 0.000000 0.000000 37.181538 19.588771 7.177813 -0.154207 2.530571 -6.974548 -1.389719 -11.073998 -28.734565 -0.198989 -2.869255 7.915309 2.841888 1.527862 5.175536 1.749230 1.746238 -10.197472 0.137094 0.275477 -14.028132 -0.548159 -1.233850 -17.464483 0.791897 -5.216825 35.982775 -0.831276 -3.268839 15.679037 0.000000 0.000000 0.000000 9.080853 17.207884 -24.725552 15.736255 -25.161673 3.533120 20.463078 10.058068 -22.407198 0.000000 0.000000 0.000000 -7.125000 0.000000 0.000000 -8.862027 53.516902 1.867478 0.000000 0.000000 0.000000 -21.995973 17.943044 60.526239 -18.517070 -28.814196 -4.795875 -24.227920 -4.174414 15.816747 0.000000 0.000000 0.000000 7.125000 0.000000 0.000000 3.327384 47.209606 -0.181665
-37.479106 16.295301 -2.028787 -177.216679 -2.839196 -169.083389 0.000000 0.000000 0.000000 -33.722747 -39.691242 18.092196 0.044699 -1.364980 -3.753562 5.063090 -13.801417 -41.095733 1.033411 -6.465981 -18.142667 0.000000 0.000000 0.000000 37.533613 20.135136 7.745205 -0.149667 2.492624 -6.869286 -1.498853 -10.963321 -29.383602 -0.364537 -3.871228 10.715569 2.786083 1.530676 5.153280 1.744077 1.744093 -10.179920 0.162492 0.281934 -13.994340 -0.677702 -1.293369 -17.445930 0.929751 -5.299109 35.907202 -0.762071 -3.298891 15.648017 0.000000 0.000000 0.000000 9.174183 17.355061 -24.810142 15.874797 -25.350581 3.592170 20.252853 9.717007 -22.617436 0.000000 0.000000 0.000000 -7.125000 0.000000 0.000000 -9.155975 53.692728 1.969894 0.000000 0.000000 0.000000 -19.432325 18.477369 55.854220 -17.615786 -27.660580 -4.370344 -24.615357 0.279861 15.239894 0.000000 0.000000 0.000000 7.125000 0.000000 0.000000 2.854975 46.641662 -0.116358
-37.475643 16.290309 -2.041065 -177.414317 -2.888172 -169.137551 0.000000 0.000000 0.000000 -33.874499 -39.338954 17.956511 0.042785 -1.335361 -3.672004 4.966721 -13.595052 -40.678535 1.056380 -6.535040 -18.344905 0.000000 0.000000 0.000000 37.378702 20.543036 8.136734 -0.157992 2.561213 -7.059393 -1.488183 -11.524206 -29.751917 -0.407111 -4.096072 11.347007 2.456959 1.529082 5.084165 1.703731 1.697626 -10.182893 0.309699 0.293957 -13.962378 -0.443603 -1.355642 -17.484272 0.628379 -5.326934 35.834535 -0.931789 -3.312914 15.601695 0.000000 0.000000 0.000000 9.271047 17.349320 -25.352834 15.916843 -25.407714 3.610201 18.994618 7.269402 -21.877865 0.000000 0.000000 0.000000 -7.125000 0.000000 0.000000 -10.137297 52.708498 1.935214 0.000000 0.000000 0.000000 -19.265779 18.441263 55.578786 -17.595379 -27.635854 -4.359978 -24.535090 0.453151 15.248030 0.000000 0.000000 0.000000 7.125000 0.000000 0.000000 2.931591 46.639651 -0.118427
-37.477992 16.285136 -2.050111 -177.632122 -2.985065 -169.255850 0.000000 0.000000 0.000000 -34.100850 -38.943872 17.822761 0.040855 -1.304322 -3.586710 4.829952 -13.725518 -40.085516 1.046075 -6.504106 -18.254236 0.000000 0.000000 0.000000 37.210168 20.912491 8.448740 -0.155362 2.539343 -6.998778 -1.532295 -11.785124 -30.244982 -0.401546 -4.062039 11.251992 2.195328 1.481502 5.114122 1.657817 1.602175 -10.187864 0.420295 0.275591 -13.994418 -0.523391 -1.351174 -17.509711 0.823440 -5.388310 35.895520 -0.850760 -3.326403 15.649529 0.000000 0.000000 0.000000 9.303035 17.364903 -24.972588 15.902831 -25.388623 3.604199 18.250953 6.998531 -21.312135 0.000000 0.000000 0.000000 -7.125000 0.000000 0.000000 -10.660897 52.005020 1.848315 0.000000 0.000000 0.000000 -19.189867 18.527421 55.494701 -17.649414 -27.705646 -4.385154 -24.679875 0.406892 14.810727 0.000000 0.000000 0.000000 7.125000 0.000000 0.000000 2.719445 46.186549 -0.079434
